<?xml version="1.0" encoding="UTF-8" standalone="no"?>
<svg
   xmlns:dc="http://purl.org/dc/elements/1.1/"
   xmlns:cc="http://creativecommons.org/ns#"
   xmlns:rdf="http://www.w3.org/1999/02/22-rdf-syntax-ns#"
   xmlns:svg="http://www.w3.org/2000/svg"
   xmlns="http://www.w3.org/2000/svg"
   xmlns:sodipodi="http://sodipodi.sourceforge.net/DTD/sodipodi-0.dtd"
   xmlns:inkscape="http://www.inkscape.org/namespaces/inkscape"
   id="Capa_1"
   enable-background="new 0 0 512 512"
   height="32"
   viewBox="0 0 32 32"
   width="32"
   version="1.1"
   sodipodi:docname="clover.svg"
   inkscape:version="0.92.3 (2405546, 2018-03-11)">
  <metadata
     id="metadata11">
    <rdf:RDF>
      <cc:Work
         rdf:about="">
        <dc:format>image/svg+xml</dc:format>
        <dc:type
           rdf:resource="http://purl.org/dc/dcmitype/StillImage" />
        <dc:title></dc:title>
      </cc:Work>
    </rdf:RDF>
  </metadata>
  <defs
     id="defs9" />
  <sodipodi:namedview
     pagecolor="#ffffff"
     bordercolor="#666666"
     borderopacity="1"
     objecttolerance="10"
     gridtolerance="10"
     guidetolerance="10"
     inkscape:pageopacity="0"
     inkscape:pageshadow="2"
     inkscape:window-width="1920"
     inkscape:window-height="1017"
     id="namedview7"
     showgrid="false"
     inkscape:zoom="0.4609375"
     inkscape:cx="238.64407"
     inkscape:cy="256"
     inkscape:window-x="-8"
     inkscape:window-y="-8"
     inkscape:window-maximized="1"
     inkscape:current-layer="Capa_1" />
  <g
     id="g4"
     style="fill:#ffffff"
     transform="matrix(0.06249952,0,0,0.06249952,3.721727e-5,-3.8341526e-6)">
    <path
       d="m 390.23,201.545 c -3.553,-2.147 -8.173,-1.008 -10.321,2.543 -2.148,3.552 -1.01,8.174 2.543,10.321 12.937,7.822 34.922,23.828 36.813,43.135 0.998,10.183 -2.723,20.579 -9.952,27.809 -7.445,7.445 -17.732,11.053 -28.223,9.899 -2.268,-0.251 -4.524,0.544 -6.136,2.157 -1.612,1.612 -2.406,3.87 -2.156,6.136 1.154,10.491 -2.455,20.778 -9.899,28.223 -7.23,7.229 -17.63,10.952 -27.809,9.952 -7.419,-0.729 -14.217,-4.45 -19.986,-8.996 -19.69,-15.514 -31.92,-40.828 -40.049,-63.925 -8.35,-23.726 -13.57,-48.989 -13.54,-74.199 l 36.725,36.725 c 1.468,1.468 3.391,2.202 5.315,2.202 1.924,0 3.847,-0.734 5.315,-2.202 2.936,-2.935 2.936,-7.694 0,-10.629 l -36.717,-36.717 c 35.083,-0.058 67.047,10.644 80.372,15.798 3.87,1.495 8.224,-0.428 9.722,-4.298 1.498,-3.872 -0.427,-8.224 -4.298,-9.722 -5.021,-1.942 -12.538,-4.624 -21.814,-7.275 16.593,-4.757 27.572,-9.643 28.975,-10.281 19.687,-8.49 65.648,-31.989 69.116,-67.37 1.431,-14.611 -3.908,-29.529 -14.284,-39.905 -8.66,-8.66 -19.994,-13.704 -31.99,-14.425 -0.721,-11.995 -5.765,-23.33 -14.425,-31.99 C 363.151,4.137 348.23,-1.2 333.623,0.229 298.241,3.696 274.743,49.658 266.253,69.345 265.617,70.745 260.748,81.682 256,98.22 251.252,81.683 246.382,70.745 245.746,69.345 237.255,49.658 213.757,3.697 178.376,0.229 c -14.609,-1.431 -29.529,3.908 -39.905,14.284 -8.659,8.66 -13.703,19.995 -14.425,31.99 -11.995,0.721 -23.33,5.765 -31.99,14.425 -10.374,10.374 -15.714,25.292 -14.282,39.903 3.467,35.382 49.429,58.88 69.116,67.37 1.4,0.636 12.338,5.505 28.875,10.254 -16.535,4.748 -27.474,9.616 -28.875,10.253 -19.687,8.49 -65.648,31.989 -69.116,67.37 -1.432,14.612 3.908,29.529 14.284,39.905 8.66,8.66 19.994,13.704 31.99,14.425 0.721,11.995 5.765,23.33 14.425,31.99 9.264,9.264 22.147,14.513 35.202,14.513 1.567,0 3.137,-0.076 4.703,-0.229 20.851,-2.043 37.573,-18.845 49.53,-36.329 -0.554,22.784 0.138,48.286 3.423,73.901 0.528,4.117 4.291,7.025 8.411,6.499 4.117,-0.528 7.027,-4.294 6.499,-8.411 -4.733,-36.904 -3.932,-73.61 -1.836,-101.729 0.482,-1.071 0.931,-2.09 1.343,-3.045 0.636,-1.4 5.503,-12.349 10.251,-28.893 3.571,12.443 7.21,21.716 9.066,26.146 -1.18,13.719 -2.122,30.038 -2.201,47.625 -0.289,64.948 10.857,115.082 33.128,149.011 1.468,2.236 1.977,4.91 1.434,7.529 -0.543,2.619 -2.074,4.87 -4.311,6.339 -1.638,1.076 -3.534,1.644 -5.48,1.645 -3.394,0 -6.53,-1.69 -8.388,-4.521 -11.843,-18.042 -20.95,-40.492 -27.068,-66.727 -0.943,-4.042 -4.982,-6.554 -9.027,-5.613 -4.043,0.943 -6.556,4.984 -5.613,9.027 6.521,27.962 16.325,52.039 29.141,71.563 4.647,7.08 12.481,11.306 20.957,11.305 11.815,-10e-4 22.083,-8.265 24.509,-19.964 1.359,-6.551 0.085,-13.239 -3.587,-18.831 -20.332,-30.973 -30.935,-79.624 -30.662,-140.694 0.032,-7.292 0.218,-14.348 0.507,-21.079 -0.352,8.201 18.327,25.239 24.012,30.25 20.586,18.144 50.45,21.38 71.114,0.715 8.659,-8.66 13.703,-19.995 14.425,-31.989 11.995,-0.721 23.33,-5.765 31.99,-14.425 10.376,-10.376 15.715,-25.294 14.284,-39.905 -1.906,-19.426 -17.12,-38.284 -43.999,-54.537 z M 279.961,75.516 c 0.023,-0.05 0.045,-0.101 0.067,-0.152 15.43,-35.813 36.014,-58.308 55.062,-60.175 10.178,-1.002 20.579,2.722 27.809,9.952 7.444,7.445 11.053,17.732 9.899,28.223 -0.249,2.267 0.544,4.524 2.156,6.136 1.612,1.613 3.868,2.407 6.136,2.157 10.493,-1.154 20.778,2.454 28.223,9.899 7.229,7.23 10.95,17.626 9.952,27.809 -1.866,19.048 -24.362,39.632 -60.175,55.062 -0.051,0.022 -0.101,0.044 -0.152,0.067 -0.358,0.164 -25.743,11.59 -58.914,16.373 -7.657,-1.028 -15.696,-1.707 -23.937,-1.87 l 32.782,-32.782 c 2.936,-2.935 2.936,-7.694 0,-10.629 -2.935,-2.935 -7.694,-2.935 -10.629,0 l -32.758,32.758 c -0.155,-8.3 -0.829,-16.384 -1.861,-24.073 4.803,-33.057 16.178,-58.4 16.34,-58.755 z M 232.04,281.394 c -0.023,0.05 -0.045,0.101 -0.067,0.152 -15.43,35.813 -36.014,58.308 -55.062,60.175 -10.185,0.998 -20.58,-2.722 -27.809,-9.952 -7.444,-7.445 -11.053,-17.732 -9.899,-28.223 0.249,-2.267 -0.544,-4.524 -2.156,-6.136 -1.417,-1.417 -3.332,-2.202 -5.314,-2.202 -0.273,0 -0.548,0.015 -0.822,0.045 -10.492,1.155 -20.778,-2.454 -28.223,-9.899 -7.229,-7.229 -10.95,-17.625 -9.952,-27.809 1.866,-19.048 24.362,-39.632 60.175,-55.062 0.051,-0.021 0.101,-0.044 0.152,-0.067 0.357,-0.164 25.627,-11.544 58.688,-16.346 7.706,1.036 15.802,1.728 24.122,1.884 l -32.742,32.742 c -2.936,2.935 -2.936,7.694 0,10.629 1.468,1.468 3.391,2.202 5.315,2.202 1.924,0 3.847,-0.734 5.315,-2.202 l 32.76,-32.76 c 0.156,8.296 0.831,16.377 1.861,24.063 -4.801,33.065 -16.181,58.411 -16.342,58.766 z M 213.759,125.585 c -2.935,-2.935 -7.694,-2.935 -10.629,0 -2.936,2.935 -2.936,7.694 0,10.629 l 36.722,36.722 c -45.642,0.036 -86.34,-18.237 -86.791,-18.442 -0.05,-0.023 -0.101,-0.045 -0.152,-0.067 -35.813,-15.43 -58.308,-36.014 -60.175,-55.062 -0.998,-10.184 2.723,-20.58 9.952,-27.809 6.533,-6.532 15.252,-10.11 24.378,-10.11 1.275,0 2.559,0.07 3.844,0.211 2.268,0.25 4.524,-0.544 6.136,-2.157 1.612,-1.612 2.406,-3.87 2.156,-6.136 -1.154,-10.491 2.455,-20.778 9.899,-28.223 7.23,-7.23 17.628,-10.953 27.809,-9.952 19.048,1.866 39.632,24.362 55.062,60.175 0.022,0.051 0.044,0.101 0.067,0.152 0.207,0.453 18.502,41.061 18.446,86.796 z"
       id="path2"
       style="fill:#ffffff"
       inkscape:connector-curvature="0" />
  </g>
</svg>
